<?xml version="1.0" encoding="iso-8859-1"?>
<!-- Generator: Adobe Illustrator 19.0.0, SVG Export Plug-In . SVG Version: 6.00 Build 0)  -->
<svg version="1.1" id="Layer_1" xmlns="http://www.w3.org/2000/svg" xmlns:xlink="http://www.w3.org/1999/xlink" x="0px" y="0px"
	 viewBox="0 0 511.6 511.6" style="enable-background:new 0 0 511.6 511.6;" xml:space="preserve">
<path style="fill:#E6E9ED;" d="M353.189,468.977c0,23.545-19.079,42.623-42.623,42.623H86.733
	c-23.544,0-42.639-19.078-42.639-42.623V42.639C44.094,19.094,63.189,0,86.733,0h223.833c23.544,0,42.623,19.094,42.623,42.639
	L353.189,468.977L353.189,468.977z"/>
<path style="fill:#656D78;" d="M44.094,426.339v42.638c0,23.545,19.095,42.623,42.639,42.623h223.833
	c23.544,0,42.623-19.078,42.623-42.623v-42.638H44.094z"/>
<path style="fill:#CCD1D9;" d="M214.633,468.977c0,11.772-9.54,21.312-21.312,21.312s-21.327-9.539-21.327-21.312
	c0-11.771,9.555-21.326,21.327-21.326S214.633,457.205,214.633,468.977z"/>
<path style="fill:#ED5564;" d="M182.658,127.9c0,5.887-4.778,10.664-10.664,10.664H86.733c-5.886,0-10.664-4.777-10.664-10.664
	V42.639c0-5.887,4.778-10.664,10.664-10.664h85.262c5.886,0,10.664,4.777,10.664,10.664V127.9H182.658z"/>
<path style="fill:#FFCE54;" d="M310.566,127.9c0,5.887-4.777,10.664-10.679,10.664h-85.254c-5.886,0-10.664-4.777-10.664-10.664
	V42.639c0-5.887,4.777-10.664,10.664-10.664h85.254c5.901,0,10.679,4.777,10.679,10.664V127.9z"/>
<path style="fill:#A0D468;" d="M182.658,255.8c0,5.886-4.778,10.663-10.664,10.663H86.733c-5.886,0-10.664-4.777-10.664-10.663
	v-85.262c0-5.886,4.778-10.663,10.664-10.663h85.262c5.886,0,10.664,4.777,10.664,10.663V255.8H182.658z"/>
<path style="fill:#FC6E51;" d="M182.658,383.7c0,5.886-4.778,10.663-10.664,10.663H86.733c-5.886,0-10.664-4.777-10.664-10.663
	v-85.262c0-5.886,4.778-10.663,10.664-10.663h85.262c5.886,0,10.664,4.777,10.664,10.663V383.7H182.658z"/>
<path style="fill:#5D9CEC;" d="M310.566,383.7c0,5.886-4.777,10.663-10.679,10.663h-85.254c-5.886,0-10.664-4.777-10.664-10.663
	v-85.262c0-5.886,4.777-10.663,10.664-10.663h85.254c5.901,0,10.679,4.777,10.679,10.663V383.7z"/>
<path style="fill:#EAC6BB;" d="M366.428,136.955c-5.434-12.131-18.454-18.095-30.632-12.631c-12.21,5.449-21.733,21.499-16.3,33.614
	l-4.809-10.788c-5.434-12.1-22.232-16.394-34.41-10.929c-12.202,5.448-20.195,20.812-14.778,32.927l-7.322-16.346
	c-5.355-11.976-21.967-16.223-34.067-11.07c-0.546,0.203-1.093,0.406-1.639,0.656c-12.193,5.448-20.078,20.765-14.66,32.881
	L170.59,92.037c-5.417-12.115-21.343-16.783-33.536-11.335c-12.194,5.449-18.938,20.266-13.521,32.381l74.941,167.541
	l-25.589-13.849c-13.505-7.322-30.476-2.311-37.892,11.179c-7.432,13.489-2.482,30.367,11.038,37.689l119.797,64.871l10.64,11.804
	c3.686,4.84,10.367,6.697,16.176,4.091l119.281-53.35c0,0,0.031-0.016,0.031-0.047c0.094-0.031,0.188-0.062,0.312-0.094
	c5.559-2.498,8.618-8.306,7.838-14.036c0-0.094,0-0.187-0.031-0.265C393.844,184.668,366.428,136.955,366.428,136.955z"/>
<polygon style="fill:#434A54;" points="432.69,310.429 256.335,389.305 291.143,467.135 467.506,388.259 "/>
<g>
</g>
<g>
</g>
<g>
</g>
<g>
</g>
<g>
</g>
<g>
</g>
<g>
</g>
<g>
</g>
<g>
</g>
<g>
</g>
<g>
</g>
<g>
</g>
<g>
</g>
<g>
</g>
<g>
</g>
</svg>
